<?xml version="1.0" encoding="utf-8"?>
<!-- Generator: Adobe Illustrator 26.5.2, SVG Export Plug-In . SVG Version: 6.00 Build 0)  -->
<svg version="1.1" id="Capa_1" xmlns="http://www.w3.org/2000/svg" xmlns:xlink="http://www.w3.org/1999/xlink" x="0px" y="0px"
	 viewBox="0 0 165 30" style="enable-background:new 0 0 165 30;" xml:space="preserve">
<style type="text/css">
	.st0{fill-rule:evenodd;clip-rule:evenodd;fill:#FD0202;}
	.st1{fill-rule:evenodd;clip-rule:evenodd;fill:#00529C;}
	.st2{fill:#00529C;}
</style>
<g id="Page-1_00000079476477967819550050000015615917709807606149_">
	<g id="logo-carrefour-2_00000047040519819937553170000000894363309483359119_">
		<g id="logo-carrefour_00000042000095639168697500000001137685988622121878_">
			<g transform="translate(0.000000, -0.000000)">
				<g id="Logo-francia_00000176002486038860782060000000395998394173217977_" transform="translate(119.000000, 0.000000)">
					<g id="Logo_00000019638066802388522210000006513992124441914813_">
						<path id="Path_00000027591828707602454980000015897605384050170016_" class="st0" d="M13,0.4L1.1,12.5c-0.6,0.5-1,1.2-1,2
							c0,0.9,0.4,1.5,1,2.1L13,28.7c0.1,0.1,0.1,0.1,0.2,0.1c0.1,0,0.2-0.1,0.2-0.2l-0.1-0.2c-2.8-3.7-4.8-7.8-4.8-13.8
							c0-5.9,2-10.2,4.8-13.9c0.1-0.1,0.1-0.2,0.1-0.2c0-0.1-0.1-0.2-0.2-0.2C13.1,0.3,13.1,0.3,13,0.4z"/>
						<path id="Path_00000124143612387053261460000012006265923381683346_" class="st1" d="M22.8,0.2C17.9,0.2,16,7,16,15
							c0,8.1,1.9,14.8,6.8,14.8c2.9,0,5.4-1.7,5.4-3.1c0-0.3-0.1-0.6-0.4-0.8c-1.4-1.3-1.9-2.6-1.9-3.8c0-2.2,1.9-3.9,3.7-3.9
							c2.5,0,3.9,1.9,3.9,4.4c0,2.3-1,4.3-2.1,5.9l-0.1,0.2c0,0.1,0.1,0.2,0.2,0.2c0.1,0,0.1,0,0.2-0.1L44.2,17c0.6-0.5,1-1.1,1-2
							c0-0.9-0.4-1.5-1-2L31.8,1.2c-0.1-0.1-0.2-0.1-0.2-0.1c-0.1,0-0.2,0.1-0.2,0.2l0.1,0.2c1.1,1.6,2.1,3.5,2.1,5.9
							c0,2.5-1.5,4.4-3.9,4.4c-1.8,0-3.7-1.6-3.7-3.9c0-1.2,0.5-2.5,1.9-3.8c0.3-0.3,0.4-0.5,0.4-0.8C28.2,1.9,25.7,0.2,22.8,0.2z"
							/>
					</g>
				</g>
				<path id="Shape_00000072960581571346036230000003203594547960723107_" class="st2" d="M17,20c0-1.1,0.5-2.2,1.4-2.9
					c1-0.7,2.4-1.1,3.7-1c0.9,0,1.7,0.1,2.6,0.5v-1.4c0-1.4-0.5-2.2-2.1-2.2c-0.5,0-1,0.1-1.5,0.3c0.1,0.2,0.1,0.4,0.1,0.6
					c0,0.5-0.1,0.9-0.5,1.2s-0.7,0.5-1.2,0.5c-0.9,0-1.6-0.7-1.6-1.6l0,0c0-1.7,2-2.8,4.8-2.8c2.2,0,3.5,0.5,4.3,1.4
					c0.7,0.9,0.7,2,0.7,3.8v4.5c0,0.9,0.5,1.1,1.6,1.3h0.1v0.1c-0.1,1.2-0.9,1.7-1.9,1.8c-0.1,0-0.1,0-0.3,0c-1,0-1.8-0.5-2.2-1.4
					c-1,0.9-2.3,1.4-3.6,1.4C18.9,24,17,22.3,17,20L17,20z M94.3,23.4c-0.2-0.3-0.4-0.8-0.5-1.2c-0.1,0.1-0.3,0.3-0.5,0.5
					c-0.9,0.8-2,1.2-3.1,1.2c-1.2,0.1-2.4-0.5-3.1-1.4c-1.1-1.3-1.1-3-1.1-5.4V15c0-0.9-0.3-1.2-1.2-1.2c-0.1,0-0.3,0-0.3,0h-0.1
					l-0.1-0.1c-0.1-0.1-0.1-0.3-0.1-0.5c0-1.1,1.4-1.7,2.2-1.8c0.3-0.1,0.5-0.1,0.9-0.1c0.6-0.1,1.1,0.2,1.4,0.6
					c0.3,0.5,0.5,1,0.5,1.5v3.9c0,1.4,0.1,2.5,0.4,3.2c0.3,0.7,0.8,1,1.7,1c0.8,0.1,1.6-0.3,2-1c0.4-0.7,0.5-1.5,0.5-2.3V15
					c0-0.9-0.3-1.2-1.2-1.2c-0.1,0-0.3,0-0.3,0H92l-0.1-0.1c-0.1-0.1-0.1-0.3-0.1-0.5c0-1.1,1.4-1.7,2.2-1.8
					c0.3-0.1,0.5-0.1,0.9-0.1c0.6-0.1,1.1,0.2,1.5,0.6c0.3,0.5,0.5,1,0.5,1.5c0,0.5-0.1,1.2-0.1,4.6c0,1.4,0,2.2,0,2.4
					c0,1,0.3,1.4,1.2,1.4c0.1,0,0.2,0,0.3,0h0.1l0.1,0.1c0.1,0.1,0.1,0.3,0.1,0.5c-0.1,1-1.4,1.5-2.2,1.6C96.2,24,95.9,24,95.6,24
					l0,0C95,24.1,94.6,23.8,94.3,23.4L94.3,23.4z M50,17.7C50,16,50.6,14.3,51.8,13c1.2-1.2,2.9-1.9,4.6-1.9
					c1.4-0.1,2.8,0.5,3.8,1.6c0.8,0.9,1.2,2,1.2,3.2c0,0.6-0.1,1.2-0.4,1.8h-0.1h-7.7c0.1,2.2,1.6,3.8,4,3.8c1.2,0,2.3-0.5,3.1-1.3
					l0.1-0.1l0.1,0.1c0.3,0.3,0.5,0.6,0.5,1c0,1.3-1.5,2.9-4.8,2.9C52.8,24,50,21.2,50,17.7C50,17.8,50,17.8,50,17.7L50,17.7z
					 M77.2,24c-1.6,0-3.3-0.6-4.5-1.8c-1.2-1.2-1.9-2.9-1.8-4.7c-0.1-3.5,2.7-6.3,6.3-6.4c0.1,0,0.1,0,0.1,0
					c1.7-0.1,3.3,0.6,4.5,1.8c2.6,2.5,2.6,6.6,0.1,9.2C80.6,23.3,78.9,24,77.2,24L77.2,24z M100.7,23.6c-0.5-0.1-0.9-0.5-0.9-0.9
					c0-0.2,0.1-0.4,0.1-0.6v-0.1h0.1c0.3-0.1,0.6-0.2,0.9-0.4c0.3-0.3,0.5-0.7,0.5-1.6v-5.2c0-0.9-0.2-1.2-0.9-1.2
					c-0.2,0-0.4,0-0.6,0.1h-0.1l-0.1-0.1c-0.1-0.2-0.1-0.4-0.1-0.5c0-1,1.1-1.6,1.9-1.8c0.3-0.1,0.6-0.1,0.9-0.1
					c1,0,1.6,0.7,1.8,1.7c0.7-1.1,1.8-1.8,2.8-1.8c1,0,2,0.7,2,1.9c0.1,1-0.7,1.8-1.6,1.8c-0.8,0-1.4-0.5-1.6-1.2
					c-0.6,0.2-1.4,0.9-1.4,3.5v3.1c0,1,0.1,1.4,0.5,1.6c0.3,0.2,0.7,0.3,1.1,0.4h0.1v0.1c0.1,0.2,0.1,0.4,0.1,0.6
					c0,0.4-0.3,0.7-0.8,0.9c-0.7,0.2-1.5,0.3-2.2,0.2C102.2,23.9,101.5,23.8,100.7,23.6L100.7,23.6z M63.6,23.6
					c-0.5-0.1-0.9-0.5-0.9-0.9c0-0.2,0.1-0.4,0.1-0.5v-0.1h0.1c0.3-0.1,0.6-0.2,0.9-0.4c0.3-0.3,0.5-0.7,0.5-1.6v-6.9l-1.8-0.1v-0.1
					c-0.1-0.2-0.1-0.4-0.1-0.7c0-0.6,0.5-1.1,1.1-1.1h0.1h0.8v-0.7c0-1.8,0.3-2.8,0.8-3.5c0.7-1.1,2-1.8,3.8-1.8
					c2.4,0,4.3,1.1,4.3,2.9c0,0.9-0.7,1.7-1.6,1.7c0,0,0,0-0.1,0c-0.9,0-1.6-0.7-1.6-1.6c0-0.3,0.1-0.7,0.3-0.9
					C69.8,7.1,69.4,7,69,7.1c-0.7,0-1.1,0.3-1.4,0.7c-0.3,0.5-0.4,1.1-0.3,1.8v2h3.1l0.1,0.1c0.1,0.2,0.1,0.5,0.1,0.7
					c0,0.7-0.5,1.2-1.1,1.2c-0.3,0-0.5,0-0.7,0c-0.5,0-1-0.1-1.4-0.1v6.7c0,1,0.2,1.4,0.5,1.6c0.3,0.3,1,0.3,1.2,0.4h0.1v0.1
					c0.1,0.1,0.1,0.3,0.1,0.5c0,0.5-0.4,0.8-1,0.9c-0.8,0.2-1.6,0.3-2.4,0.2C65.1,23.8,64.4,23.8,63.6,23.6L63.6,23.6z M41.8,23.6
					c-0.5-0.1-0.9-0.5-0.9-0.9c0-0.2,0.1-0.4,0.1-0.5v-0.1h0.1c0.3-0.1,0.6-0.2,0.9-0.4c0.3-0.3,0.5-0.7,0.5-1.6v-5.2
					c0-0.9-0.2-1.2-0.9-1.2c-0.2,0-0.4,0-0.6,0.1h-0.1l-0.1-0.1c-0.1-0.2-0.1-0.4-0.1-0.6c0-1,1.1-1.6,1.9-1.8
					c0.3-0.1,0.5-0.1,0.9-0.1c1,0,1.6,0.7,1.8,1.6c0.7-1.1,1.8-1.8,2.8-1.8c1,0,2,0.7,2,1.9c0.1,1-0.7,1.8-1.6,1.8
					c-0.8,0-1.4-0.5-1.6-1.2c-0.6,0.2-1.4,0.9-1.4,3.5v3.1c0,1,0.1,1.4,0.5,1.6c0.3,0.2,0.7,0.3,1.1,0.4h0.1v0.1
					c0.1,0.2,0.1,0.4,0.1,0.6c0,0.4-0.3,0.7-0.8,0.9c-0.7,0.2-1.5,0.3-2.2,0.2C43.3,23.8,42.6,23.8,41.8,23.6L41.8,23.6z M31.5,23.6
					c-0.5-0.1-0.9-0.5-0.9-0.9c0-0.2,0.1-0.4,0.1-0.5v-0.1h0.1c0.3-0.1,0.6-0.2,0.9-0.4c0.3-0.3,0.5-0.7,0.5-1.6V15
					c0-0.9-0.2-1.2-1-1.2c-0.2,0-0.4,0-0.6,0.1h-0.1v-0.2c-0.1-0.2-0.1-0.4-0.1-0.6c0-1,1.1-1.6,1.9-1.8c0.3-0.1,0.5-0.1,0.9-0.1
					c1,0,1.6,0.7,1.8,1.6c0.7-1.1,1.8-1.8,2.8-1.8c1,0,2,0.7,2,1.9c0.1,1-0.7,1.8-1.6,1.8c-0.8,0-1.4-0.5-1.6-1.2
					c-0.6,0.2-1.4,0.9-1.4,3.5v3.1c0,1,0.1,1.4,0.5,1.6c0.3,0.2,0.7,0.3,1.1,0.4h0.1v0.1c0.1,0.2,0.1,0.4,0.1,0.6
					c0,0.4-0.3,0.7-0.8,0.9c-0.7,0.2-1.5,0.3-2.2,0.2C33,23.9,32.2,23.8,31.5,23.6L31.5,23.6z M74.4,17.2c0,3.4,1.5,4.8,2.9,4.8
					c1.6,0,2.8-1.4,2.9-4.3c0-1.5-0.3-2.7-0.9-3.5c-0.5-0.8-1.2-1.2-2.1-1.2C75.5,13,74.4,14.6,74.4,17.2L74.4,17.2z M22.7,17.9
					c-1.4,0-2.3,0.7-2.3,1.9c0,1.2,0.8,2,2.1,2c0.9,0,1.6-0.5,2.2-1.1V19c-0.1-0.3-0.2-0.6-0.5-0.7C23.7,18.1,23.2,17.9,22.7,17.9
					L22.7,17.9z M57.9,15.9c0.3,0,0.3-0.1,0.3-0.1c0.1-0.1,0.1-0.3,0.1-0.5c0-1.2-1-2.3-2.4-2.3l0,0c-1.8,0-2.5,1.4-2.6,2.9H57.9
					L57.9,15.9z M0.8,15.2c-0.1-2.4,0.9-4.7,2.4-6.5c1.4-1.6,3.5-2.5,5.6-2.5c3.8,0,6.5,2.7,6.5,5c0,1.2-0.8,2.2-1.8,2.2
					c-0.5,0-1-0.2-1.4-0.5c-0.4-0.4-0.6-0.9-0.6-1.4c0-0.5,0.3-1,0.7-1.4c-0.5-0.9-1.5-1.6-3-1.6c-1.3,0-2.4,0.7-3.2,1.9
					s-1.2,2.9-1.2,5S5.1,19,6,20.2c0.9,1.2,2,1.9,3.3,1.9c1.6,0,2.6-0.7,3-1.6c-0.4-0.4-0.7-0.9-0.7-1.4c0-0.5,0.2-1,0.6-1.4
					c0.4-0.3,0.9-0.5,1.4-0.5c1,0,1.8,0.9,1.8,2.2c0,2.3-2.7,4.9-6.5,5c-2.2-0.1-4.2-0.9-5.6-2.4C1.8,20.2,0.8,18,0.8,15.2z"/>
			</g>
		</g>
	</g>
</g>
</svg>
